<svg xmlns="http://www.w3.org/2000/svg" viewBox="0 0 1377.51 430.01"><defs><style>.cls-1{fill:#199480;}.cls-2{fill:#fff;}.cls-3{fill:#ff524b;}.cls-4{fill:#b70950;}.cls-5{fill:#f6c159;}.cls-6{fill:#fa9500;}.cls-7{fill:#2e1149;}</style></defs><title>logo-horizontal</title><g id="Layer_2" data-name="Layer 2"><g id="Layer_1-2" data-name="Layer 1"><path class="cls-1" d="M216.81,365c-2,1-4.09,1.9-6.28,2.81C204.89,347.25,175,332.7,168.95,330a1.38,1.38,0,0,0-1.67.19,1.51,1.51,0,0,0,0,1.87c12.68,23.64,27.56,34,36.39,38.39a128.43,128.43,0,0,1-24.21,5.84c-5.24-26.28-43.75-45-51.49-48.57a1.48,1.48,0,0,0-1.82.19c-.21.23-.65.89,0,2.06,16,29.76,35.06,42.37,45,47.23a131.92,131.92,0,0,1-28.44-.92c-3-24.66-37.11-44.86-44-48.69a1.44,1.44,0,0,0-1.77,0c-.23.2-.7.81-.19,2,10.76,24.71,24.57,37.85,33.79,44.37-2.7-.64-5.36-1.37-7.95-2.17a120.61,120.61,0,0,1-23-9.86C99.4,340.41,76.5,318.33,70,314a1.37,1.37,0,0,0-1.67-.08,1.5,1.5,0,0,0-.34,1.82c.9,2.61,1.74,5.12,2.55,7.53,3.9,11.59,7,20.71,11.07,27.08l-1.32-1c-5.78-4.34-12-8.85-18.63-12.21,5.6-24.26-19.79-54.87-25-60.8a1.43,1.43,0,0,0-1.68-.56c-.28.12-.93.53-.84,1.8,2,29.61,12,47.22,19.06,56.09a39.89,39.89,0,0,0-9.86-1.82C26.39,330,6.63,337.66,1,340.06a1.36,1.36,0,0,0-1,1.34c0,.29.19,1,1.32,1.27,30.88,7.86,49.76.09,55.35-2.84,7.42,3.26,14.32,8.42,21,13.42l.62.47C54.49,349.65,23.85,366,17.66,369.55a1.48,1.48,0,0,0-.92,1.59c.06.31.34,1,1.66,1.23,40.39,5.52,63-7.07,69.71-11.64a127.38,127.38,0,0,0,17.82,9.77c-22.89,2.43-46.48,22.8-53.45,29.26a1.48,1.48,0,0,0-.53,1.76c.13.29.57.94,1.89.81,39.86-3.88,59.18-21.08,64.68-26.94,3.29,1.09,6.63,2,9.92,2.85,4,1,8.11,1.79,12.25,2.41-22,7.93-39.72,34.91-44.85,43.37a1.48,1.48,0,0,0,0,1.83c.2.24.81.75,2,.26,37.85-14.9,51.48-36.94,55.08-44.18a137.32,137.32,0,0,0,18.69-.15c-14.34,11.19-21.48,34.84-23.4,42.16a1.35,1.35,0,0,0,.47,1.59,1.48,1.48,0,0,0,1.81-.27c23.81-18.61,29.9-37,31.44-44.68a132.72,132.72,0,0,0,21.42-5.17l-.05,0C186,390,177.27,418.9,174.87,428a1.48,1.48,0,0,0,.49,1.76c.26.17,1,.49,2-.33q2.17-1.7,4.19-3.39c31.07-26.08,35.67-51.31,36.29-56.27a1.9,1.9,0,0,0,0-.21l.92-.44a2.2,2.2,0,0,0,1.29-1.85,2.5,2.5,0,0,0-1.07-2.22A2.18,2.18,0,0,0,216.81,365Z"/><path class="cls-1" d="M239.8,365c2,1,4.09,1.9,6.28,2.81,5.65-20.51,35.57-35.06,41.59-37.8a1.38,1.38,0,0,1,1.67.19,1.51,1.51,0,0,1,0,1.87c-12.68,23.64-27.56,34-36.39,38.39a128.42,128.42,0,0,0,24.21,5.84c5.24-26.28,43.75-45,51.49-48.57a1.48,1.48,0,0,1,1.82.19c.21.23.65.89,0,2.06-16,29.76-35.06,42.37-45,47.23a131.92,131.92,0,0,0,28.44-.92c3-24.66,37.11-44.86,44-48.69a1.44,1.44,0,0,1,1.77,0c.23.2.7.81.19,2-10.76,24.71-24.57,37.85-33.79,44.37,2.7-.64,5.36-1.37,7.95-2.17a120.61,120.61,0,0,0,23-9.86c.1-21.49,23-43.57,29.54-47.95a1.37,1.37,0,0,1,1.67-.08,1.5,1.5,0,0,1,.34,1.82c-.9,2.61-1.74,5.12-2.55,7.53-3.9,11.59-7,20.71-11.07,27.08l1.32-1c5.78-4.34,12-8.85,18.63-12.21-5.6-24.26,19.79-54.87,25-60.8a1.43,1.43,0,0,1,1.68-.56c.28.12.93.53.84,1.8-2,29.61-12,47.22-19.06,56.09a39.89,39.89,0,0,1,9.86-1.82c16.92-1.87,36.69,5.83,42.34,8.23a1.36,1.36,0,0,1,1,1.34c0,.29-.19,1-1.32,1.27-30.88,7.86-49.76.09-55.35-2.84-7.42,3.26-14.32,8.42-21,13.42l-.62.47c23.81-4.08,54.45,12.33,60.65,15.83a1.47,1.47,0,0,1,.92,1.59c-.06.31-.34,1-1.66,1.23-40.39,5.52-63-7.07-69.71-11.64a127.38,127.38,0,0,1-17.82,9.77c22.89,2.43,46.48,22.8,53.45,29.26a1.48,1.48,0,0,1,.53,1.76c-.13.29-.57.94-1.89.81-39.86-3.88-59.18-21.08-64.68-26.94-3.29,1.09-6.63,2-9.92,2.85-4,1-8.11,1.79-12.25,2.41,22,7.93,39.72,34.91,44.85,43.37a1.48,1.48,0,0,1,0,1.83c-.2.24-.81.75-2,.26-37.85-14.9-51.48-36.94-55.08-44.18a137.32,137.32,0,0,1-18.69-.15c14.34,11.19,21.48,34.84,23.4,42.16a1.35,1.35,0,0,1-.47,1.59,1.48,1.48,0,0,1-1.81-.27c-23.81-18.61-29.9-37-31.44-44.68a132.72,132.72,0,0,1-21.42-5.17l.05,0C270.64,390,279.35,418.9,281.74,428a1.48,1.48,0,0,1-.49,1.76c-.26.17-1,.49-2-.33q-2.17-1.7-4.19-3.39C244,400,239.35,374.77,238.74,369.81a1.9,1.9,0,0,1,0-.21l-.92-.44a2.2,2.2,0,0,1-1.29-1.85,2.5,2.5,0,0,1,1.07-2.22A2.18,2.18,0,0,1,239.8,365Z"/><path d="M163.5,351.82s-15.88-10-19.43-3.85,15.61,14.17,15.61,14.17-21.14,3.46-15.08,10.49S163,372,163,372s-6.48,9.7-1,13.1,7.76-12.2,7.76-12.2S173,386.28,182,383.49s-4.71-15.82-4.71-15.82,13,3,16.2-1.82-14.84-7-14.84-7,12.71-7.89,8.64-14.45-13,6.07-13,6.07,1.06-12-9.57-14.51S163.5,351.82,163.5,351.82Z"/><path class="cls-2" d="M173.69,363.67c.45-3.21-6.34-8.85-9-3.51S172.65,371.13,173.69,363.67Z"/><path d="M128.26,381.79s-12-7.55-14.64-2.9,11.76,10.67,11.76,10.67-15.93,2.61-11.36,7.9,13.84-.46,13.84-.46-4.88,7.31-.72,9.87,5.85-9.19,5.85-9.19,2.4,10.07,9.23,8-3.55-11.92-3.55-11.92,9.76,2.29,12.2-1.37-11.18-5.26-11.18-5.26,9.58-5.94,6.51-10.89-9.79,4.58-9.79,4.58.8-9.06-7.21-10.93S128.26,381.79,128.26,381.79Z"/><path class="cls-2" d="M135.94,390.72c.34-2.42-4.78-6.66-6.78-2.64S135.15,396.35,135.94,390.72Z"/><path d="M102.24,348.31s-7.87-9.65-11.41-6.51S97.67,354,97.67,354s-14-2.27-11.69,3.42,11.68,3.49,11.68,3.49-6.12,4.73-3.36,8,7.45-6,7.45-6-.81,9.07,5.47,9.23.37-10.94.37-10.94,7.51,4.64,10.57,2.27-7.86-7.51-7.86-7.51,9.65-2.28,8.48-7.27-9.45,1.08-9.45,1.08,3.2-7.33-3-11.14S102.24,348.31,102.24,348.31Z"/><path class="cls-2" d="M106.16,357.91c1-1.92-2.12-6.9-4.92-4.1S103.93,362.39,106.16,357.91Z"/><path d="M318.23,398.78s15.18-11.06,10.75-16.64S310,391.42,310,391.42s4.59-20.93-4.19-17.88-6.22,17.3-6.22,17.3-6.62-9.6-11.81-5.73,8.48,11.72,8.48,11.72-13.59-2-14.35,7.48,16.45,1.47,16.45,1.47-7.6,10.92-4.29,15.73,12-11.22,12-11.22,2.64,14.73,10.24,13.37-.85-14.31-.85-14.31,10.78,5.42,17-3.54S318.23,398.78,318.23,398.78Z"/><path class="cls-2" d="M303.46,403.88c2.81,1.6,10.56-2.63,6.58-7.06S296.9,400.15,303.46,403.88Z"/><path d="M287.1,359.33s11.44-8.33,8.1-12.53-14.26,7-14.26,7,3.46-15.77-3.15-13.47-4.68,13-4.68,13-5-7.23-8.9-4.32,6.38,8.83,6.38,8.83-10.24-1.49-10.81,5.63,12.39,1.1,12.39,1.1-5.73,8.23-3.23,11.85,9-8.45,9-8.45,2,11.1,7.72,10.07-.64-10.78-.64-10.78,8.12,4.09,12.82-2.67S287.1,359.33,287.1,359.33Z"/><path class="cls-2" d="M276,363.18c2.12,1.21,8-2,5-5.32S271,360.37,276,363.18Z"/><path d="M343.71,366.77s11.87-3.75,10.26-8.2-13.86,1.84-13.86,1.84,7.29-12.19,1.14-12.12-7.55,9.56-7.55,9.56-2.14-7.43-6.22-6.09,2.86,9.15,2.86,9.15-8.13-4.11-10.6,1.68,10,4.39,10,4.39-7.08,5.27-6,9,9.88-4.53,9.88-4.53-1.44,9.82,3.62,10.56,2.48-9.18,2.48-9.18,5.63,5.68,11.45,1.36S343.71,366.77,343.71,366.77Z"/><path class="cls-2" d="M332.93,366.13c1,1.92,6.79,2.43,6.23-1.48S330.69,361.66,332.93,366.13Z"/><path d="M217.64,360.54s-25.68.73-25,10.46,28.54,4.18,28.54,4.18-21.36,20.06-9.11,23.42,20.39-14.71,20.39-14.71,0,16,8.9,15.6-.5-19.78-.5-19.78,13.81,12.75,22,2.67S245.42,368,245.42,368s17-6.44,17-14.42-22.18,3.4-22.18,3.4,8.41-18.66-1.22-23-10.11,16.81-10.11,16.81-8-14.46-21.94-9.17S217.64,360.54,217.64,360.54Z"/><path class="cls-2" d="M238.26,366.21c-1.94-4-14-5.2-12.89,2.88S242.77,375.49,238.26,366.21Z"/><path class="cls-3" d="M215.9,407.18c8.52,10.61,23.36,10.77,32,.33C296,349.68,431.67,176.35,374.77,124.63c-88.66-80.58-143,91.8-143,91.8s-25.33-158.17-118-100.18C33.17,166.77,168,347.49,215.9,407.18Z"/><path class="cls-4" d="M144.35,118.09a40.22,40.22,0,0,1,5.36-14.54c-10.65.52-22.56,4.37-35.86,12.7C33.17,166.77,168,347.49,215.9,407.18c8.52,10.61,23.36,10.77,32,.33,8.35-10,19.34-23.56,31.5-39.32a104.55,104.55,0,0,1-42.19-19.85C168.8,294.45,137,201.37,144.35,118.09Z"/><path class="cls-5" d="M233.73,116.19c1.59,5.12,9.09,5.05,11.52.28,7-13.65,20.67-39.34,45.57-43.4,41.33-6.74,10.57-47.52-20.18-31.94,0,0,19.52-30.68-9.61-40.28-20.46-6.74-32.68,28.89-32.68,28.89S213.93,5.46,200.47,17.12s0,29.67,0,29.67-24-5.91-29.79,14.31C165.51,79.24,215.85,58.61,233.73,116.19Z"/><path class="cls-6" d="M211,22a13.33,13.33,0,0,1-1.95-8,11.54,11.54,0,0,0-8.63,3.13c-13.46,11.66,0,29.67,0,29.67s-24-5.91-29.79,14.31c-5.17,18.14,45.17-2.48,63,55.1a5.43,5.43,0,0,0,4.84,3.8C239.37,85.7,229.55,51.39,211,22Z"/><path class="cls-6" d="M246.7,88.09c-6.49,0-6.5,10.08,0,10.08S253.2,88.09,246.7,88.09Z"/><path class="cls-6" d="M246.7,70.45c-6.49,0-6.5,10.08,0,10.08S253.2,70.45,246.7,70.45Z"/><path class="cls-6" d="M240.82,50.29c-6.49,0-6.5,10.08,0,10.08S247.32,50.29,240.82,50.29Z"/><path class="cls-6" d="M233.26,34.33c-6.49,0-6.5,10.08,0,10.08S239.76,34.33,233.26,34.33Z"/><path class="cls-2" d="M290.13,280.23s22.63-4.16,22.63-41.47c0-56.4-109.27-51.16-133.8-25.17s-22.07,81.57,38.42,72.58c0,0-2.45,13.52,5.72,16.57s13.31-11.95,13.31-11.95.8,12.17,8.46,11.95,9.29-11.95,9.29-11.95,5.72,11.35,11.44,8.68,4.09-14.33,4.09-14.33Z"/><path class="cls-7" d="M205.64,272.93c14.39-2.08,21.23-51.82-2.72-55.58S164.22,278.93,205.64,272.93Z"/><path class="cls-7" d="M287.38,268.83c12.81-3.64,20.16-30.78,3.27-46.58S258,224,261.77,244.63,271.57,273.32,287.38,268.83Z"/><path class="cls-7" d="M248.69,265.85s-1.79-10.9-6.89-9.81-5.8,15.47,0,17.27S250.07,270.76,248.69,265.85Z"/><path class="cls-4" d="M370.15,139.38c-8.25,0-8.26,12.82,0,12.82S378.41,139.38,370.15,139.38Z"/><path class="cls-4" d="M349.85,124.42c-8.25,0-8.26,12.82,0,12.82S358.12,124.42,349.85,124.42Z"/><path class="cls-4" d="M357.33,163.95c-8.25,0-8.26,12.82,0,12.82S365.59,163.95,357.33,163.95Z"/><path class="cls-3" d="M230.21,375.45c-8.25,0-8.26,12.82,0,12.82S238.48,375.45,230.21,375.45Z"/><path class="cls-3" d="M212.05,362.63c-8.25,0-8.26,12.82,0,12.82S220.32,362.63,212.05,362.63Z"/><path class="cls-3" d="M198.17,346.61c-8.25,0-8.26,12.82,0,12.82S206.43,346.61,198.17,346.61Z"/><path class="cls-3" d="M183.21,326.31c-8.25,0-8.26,12.82,0,12.82S191.47,326.31,183.21,326.31Z"/><path class="cls-3" d="M125.53,123.35c-8.25,0-8.26,12.82,0,12.82S133.79,123.35,125.53,123.35Z"/><path class="cls-3" d="M118.05,140.45c-8.25,0-8.26,12.82,0,12.82S126.31,140.45,118.05,140.45Z"/><path class="cls-7" d="M642.92,173.35q0,3.5-1,4.74-1.13,1.81-4.74,2Q633,193.9,631,197.85a31.91,31.91,0,0,1-13.21,13.21q-6.44,3.62-16.15,3.84l-21.23-.12q-6.55-.46-8-1.15-3.16-1.38-3.16-6.09,0-2.87,3.87-4,2.58-.34,5.16-.8a1.85,1.85,0,0,1,.12-.58v-15q-.11-1.35-.45-4.84a2.78,2.78,0,0,0-.23-1.46q-.68-.34-2.94-1.24-3.73-1.57-4-4.5c-.15-1-.23-1.61-.23-1.69A4.08,4.08,0,0,1,573,169.4a23.4,23.4,0,0,1,5.35-.9V138.34q-9.15-.68-9.15-8a4.8,4.8,0,0,1,1.24-3.25,4.62,4.62,0,0,1,3.39-1.54h8.92l10.16-.68h7.9q10,0,17.05,4,6.21,3.5,8.58,6.32a45.84,45.84,0,0,1,7,13.21q4.29,11.52,4.29,16.94l.34,1.81q3.39.57,4.12,1.64T642.92,173.35Zm-18.63,6.51a18.93,18.93,0,0,1-5.65-1.92,5.73,5.73,0,0,1-2.37-5q0-4.86,8.24-5.77v-.45q0-1.58-2-9a30.38,30.38,0,0,0-3.73-8.37,22.44,22.44,0,0,0-8.92-8.14A36.05,36.05,0,0,0,594,138h-3.16l-.45,7.92v21.83a17.43,17.43,0,0,1,5.58,1.81q3.57,2,3.57,4.86,0,6.56-7.23,6.68,0,1.13-.11,2.49v18.55h6.37q17.88,0,23.46-13.91A43,43,0,0,0,624.29,179.86Z"/><path class="cls-7" d="M691.47,208.8q0,4.4-4,5.08l-1.47.34h-2.82a36.13,36.13,0,0,0-6.32.9h-7.23q-3.39-.11-5.42-.34-3.28-.34-5.19-.68-4.86-.9-4.86-4.4a6,6,0,0,1,.92-3.28c.08-.07.42-.34,1-.79a31.67,31.67,0,0,1,3.91-1.69,34.85,34.85,0,0,1,5.64-1q.23-3.61.23-21.23,0-1.58.17-4.8t.17-4.8a13,13,0,0,1-1.47-.34q-8.36-.79-8.36-5.53,0-5,4.28-6a11.73,11.73,0,0,1,2-.34l3.12.45q.11-6,.35-15.13l.12-9.26-5.11-1.58q-3.25-1.24-3.25-3.39a4.24,4.24,0,0,1,.23-1.35,6,6,0,0,1,1.92-2.6,4.46,4.46,0,0,1,2.82-1.24h1.58l9.94-.79h6q1.92.23,3,.34,6.1,1,6.1,5.31T682,135.52a50.41,50.41,0,0,0-.79,7V159a1.8,1.8,0,0,0-.11.45q6.66,2.37,6.66,6.21a6.39,6.39,0,0,1-2,4.63,5.63,5.63,0,0,1-4.88,1.69q-.22,7.57-.44,12.31-.22,5.87-.22,7v6.21a39.09,39.09,0,0,0,0,4.29l.11.11q.68,0,2.82.23a21.64,21.64,0,0,1,5.31,1.35A6,6,0,0,1,691.47,208.8Z"/><path class="cls-7" d="M791.29,210.61q0,2.15-3.11,3.39a11.38,11.38,0,0,1-5.25,1l-5.08.11H766.22a14.66,14.66,0,0,1-4.07-.79,3.28,3.28,0,0,1-2-3.27,4.56,4.56,0,0,1,2.94-4.41,49.67,49.67,0,0,1,5-1.35v-.23q0-.45-1.81-12.42-1.92-12.42-2.37-14-2.26,1.47-7.11,4.4-6.21,3.61-8.13,3.61t-7.23-4q-3.84-2.82-7.57-5.76-2,7.68-6.66,28.34,8.69.57,8.69,5.19,0,4.18-8.47,4.18l-17.05-.23q-6-.22-6-3.61t4-4.52q2.82-.45,5.65-1,3.39-11.29,8.13-33.2-2.82-1.92-10.16-3-3.73-.68-3.73-3.5a6.36,6.36,0,0,1,2.48-5,7.86,7.86,0,0,1,5.08-2.09,40.49,40.49,0,0,1,10.39,1.92q.34-1.12,6-24.09-5.65-.68-5.65-6.75,0-5.06,8.47-5.06l11.18.23,16.6-.23a11.46,11.46,0,0,1,5.42.91q4.63,1.7,4.63,4.64,0,4.87-6.55,6.23.23.45,3.39,14,1,4.42,2.82,11.21a19.63,19.63,0,0,1,5.31-1.47,7,7,0,0,1,4.52,1.64,5.31,5.31,0,0,1,2,4.35q0,2.26-3.39,4.86l-5.19,3.84q2.82,12.65,6.32,30.15l2.26-.23a7.82,7.82,0,0,1,4.63,1.36A5.39,5.39,0,0,1,791.29,210.61Zm-30.15-44.49-6.4-29a22.81,22.81,0,0,0-5.2-.67,17.29,17.29,0,0,0-5,.68q-1.58,5-4.75,17.32-.23,1-1,4.41l-1.36,5.89,11.71,8.83Q756.5,169.16,761.14,166.12Z"/><path class="cls-7" d="M944,173.35q0,3.5-1,4.74-1.13,1.81-4.74,2Q934,193.9,932,197.85a31.91,31.91,0,0,1-13.21,13.21q-6.44,3.62-16.15,3.84l-21.23-.12q-6.55-.46-8-1.15-3.16-1.38-3.16-6.09,0-2.87,3.87-4,2.58-.34,5.16-.8a1.85,1.85,0,0,1,.12-.58v-15q-.11-1.35-.45-4.84a2.78,2.78,0,0,0-.23-1.46q-.68-.34-2.94-1.24-3.73-1.57-4-4.5c-.15-1-.23-1.61-.23-1.69A4.08,4.08,0,0,1,874,169.4a23.4,23.4,0,0,1,5.35-.9V138.34q-9.15-.68-9.15-8a4.79,4.79,0,0,1,1.24-3.25,4.62,4.62,0,0,1,3.39-1.54h8.92l10.16-.68h7.9q10,0,17.05,4,6.21,3.5,8.58,6.32a45.84,45.84,0,0,1,7,13.21q4.29,11.52,4.29,16.94l.34,1.81q3.39.57,4.12,1.64T944,173.35Zm-18.63,6.51a18.93,18.93,0,0,1-5.65-1.92,5.73,5.73,0,0,1-2.37-5q0-4.86,8.24-5.77v-.45q0-1.58-2-9a30.38,30.38,0,0,0-3.73-8.37,22.44,22.44,0,0,0-8.92-8.14A36,36,0,0,0,895.06,138H891.9l-.45,7.92v21.83a17.43,17.43,0,0,1,5.58,1.81q3.57,2,3.57,4.86,0,6.56-7.23,6.68,0,1.13-.11,2.49v18.55h6.37q17.88,0,23.46-13.91A43,43,0,0,0,925.33,179.86Z"/><path class="cls-7" d="M1017.24,193.11q0,2.49-.45,8.81-.45,5.87-.56,6.55-.12.23-.79,1.81-2,4.41-9.26,4.41h-7l-13.32-1q-2.37-.11-10.62.14l-12.87.87a9.53,9.53,0,0,1-2.82-.45,6.78,6.78,0,0,1-3.61-2.38,4.49,4.49,0,0,1-1.24-2,6.27,6.27,0,0,1,.45-1.7,9,9,0,0,1,3.84-4.65,18.83,18.83,0,0,1,4.86-1.47q.45-6.24.9-17v-9.07l-1.26-.34q-5.15-.68-6.52-3.63-.23-.57-.8-1.93a3.94,3.94,0,0,1-.23-1.48,8.3,8.3,0,0,1,.68-1.47q2-3.63,7.68-4.42.22-2.72.68-8.05.68-9.19.68-11.34l-.11-6.35q-8.13.11-8.13-7.9,0-3.16,3.19-3.16h2.06l16-.68h19.3l8.75-.68a22.51,22.51,0,0,1,3.54.34,7.82,7.82,0,0,1,3.93,2,4.76,4.76,0,0,1,1.85,3.57,6.94,6.94,0,0,1-.23,2q-.34,3.63-1.47,10.89a11.13,11.13,0,0,1-2,5.22,6.52,6.52,0,0,1-5.19,2.38,2.62,2.62,0,0,1-1.92-.58q-3.5-2.76-3.5-8.73a26.62,26.62,0,0,1,.11-3.45,32.93,32.93,0,0,0-5-.23h-7.61a46.28,46.28,0,0,0-9,.79,70.69,70.69,0,0,0-.91,9.71v5.31l-.68,10.84,8.81.34c.07,0,.15-.11.23-.34a11.28,11.28,0,0,1,2.26-5.76q2-2.82,4.4-2.82,1.8,0,3.16,4a23.92,23.92,0,0,1,.79,3.67,25.17,25.17,0,0,1,.23,3.22q0,1-.23,3.39-.11,1.13-.34,2.37-.34,3-.56,6A10.17,10.17,0,0,1,995,184.3a8.76,8.76,0,0,1-1.69,1.41,4.81,4.81,0,0,1-2.82,1,5.11,5.11,0,0,1-2.54-1.52,6.54,6.54,0,0,1-2.2-3.44,17.9,17.9,0,0,1-.68-3.39v-1.47q-1.05-.11-3.86-.23l-2.57-.23v9.26l-.45,8.58.45,6.55.11.11c.9-.06,2.22-.17,4-.34l23,1c0-.38,0-1.32.11-2.82l.34-3.84.34-2.48q0-5.31.9-7.11a4.92,4.92,0,0,1,4.52-3q3.27,0,3.84.79a8.62,8.62,0,0,1,1.69,4.86Q1017.24,184.08,1017.24,193.11Z"/><path class="cls-7" d="M1159.18,203.95v4a14,14,0,0,1-.79,4q-1.58,2-5.87,2.14l-17.05.34q-4.41.11-12.87.45l-7.68.23h-5.31q-14.34,0-14.34-6.1,0-3,6.89-5.65,0-.56.11-13.32l.34-8.24v-5.65q-8.58-1.24-8.58-6.1,0-6.66,8.58-7.57V136.2h-1.13a8.74,8.74,0,0,1-4.18-1.24q-2.6-1.58-2.6-3.73a6.07,6.07,0,0,1,.79-2.48q1.92-3.73,9.71-3.73h15.13q6.77,0,6.77,6.77,0,5.76-9.37,5.76h-1.58l.34,11.27v12.63l5.26,1.13q4.11,1.13,4.11,4.06a8.41,8.41,0,0,1-1.18,3.89,9,9,0,0,1-2.88,3.33,12.35,12.35,0,0,1-5.65,1.47V195q.11,2.82.45,7.89a61.7,61.7,0,0,0,10.2.9h9q1.45,0,6.5-.45a23.13,23.13,0,0,0,3-1V193q.46-5.31.93-10.62,1-5.08,6.83-5.08,4.4,0,5.21,3.39a53.23,53.23,0,0,1,.7,8.24q.11,4.4.23,8.69Z"/><path class="cls-7" d="M1235.06,169.84q0,6.44-7.45,6.55-.79,16.26-6.32,27.78a17.32,17.32,0,0,1-6.44,6.89q-7,4.74-13.21,4.74a23.88,23.88,0,0,1-16.94-6.44,23.31,23.31,0,0,1-6.21-9.6q-.57-1.47-1.47-4.4-2.26-8-2.26-12l.34-4q0-.34-2.65-.73a6.47,6.47,0,0,1-4.46-3.11,7.85,7.85,0,0,1-1.69-4.52,4.69,4.69,0,0,1,1.24-2.48,12.41,12.41,0,0,1,1.58-1.81,11,11,0,0,1,4.18-1,26.2,26.2,0,0,0,.56-6.1q.11-3.16.11-6.21,1.13-19.42,14.11-26.31a29.57,29.57,0,0,1,14-3.27,33.53,33.53,0,0,1,8.36,1.24q5.3,1.36,7.57,3.39,5.3,4.63,8.24,16.49.79,3.61,2,18.86Q1235.06,166.23,1235.06,169.84Zm-20,6.89v-2h-.34a7.51,7.51,0,0,1-2.6.45q-5.08,0-5.08-6.66,0-2.37,3.27-4.07,2.71-1.47,4.07-1.24c.07-.45.15-.94.23-1.47v-5.87a34.56,34.56,0,0,0-1.81-11.41q-2.37-7-7.23-8.47a13.3,13.3,0,0,0-4.4-.79q-9.15,0-11.07,8.35-1,4.18-2.6,13.78l-.11,8.81a28.74,28.74,0,0,1,3.61.79,9.85,9.85,0,0,1,3.39,2.93,4.1,4.1,0,0,1,.9,1.36,6.7,6.7,0,0,1-6.66,6.77v2.6a39.49,39.49,0,0,0,2.27,13.21q3.4,9.71,10.32,9.71,5.45,0,9.3-6a24.32,24.32,0,0,0,3.74-11.41q.11-1,.45-4.63A40.93,40.93,0,0,0,1215.07,176.73Z"/><path class="cls-7" d="M1304.5,199a17.29,17.29,0,0,1-3.1,9.09,18.84,18.84,0,0,1-9.77,7.4,31.65,31.65,0,0,1-11.74,2.14,36,36,0,0,1-11.86-2.26,32.37,32.37,0,0,1-8.58-4.29,6.63,6.63,0,0,1-6.66,4.52q-6.89,0-6.89-7.56,0-14.68.45-16a3.59,3.59,0,0,1,3.73-2.37q4.52,0,6.21,1.71,1.35,2,3.84,5.46a24.81,24.81,0,0,0,5.53,4.89,22.7,22.7,0,0,0,12.65,4.21,11.14,11.14,0,0,0,7.17-2.21,7.47,7.47,0,0,0,2.77-6.18q0-4.65-5-10.1a26.61,26.61,0,0,0-8.58-6.69,8.39,8.39,0,0,1-3.67,4.46,10.36,10.36,0,0,1-5.59,1.75q-4,0-4-6.21a10.65,10.65,0,0,1,.11-1.69,12.07,12.07,0,0,1,1-2.71q.57-1,.57-.9a41.29,41.29,0,0,0-4.41-3.84q-8.81-6.55-12.19-13.78t-3.39-12.2a18.58,18.58,0,0,1,2.71-9.09,23.81,23.81,0,0,1,7.57-8.07q3.39-2.26,10.16-2.26a38.59,38.59,0,0,1,11.29,1.84,31.44,31.44,0,0,1,10.73,5.17l1.47-5.5q1.13-2.06,4.86-2.06,6.89,0,6.89,6.89l.23,14.34q-.57,4.29-1.58,5.65-1.36,1.81-5.08,1.81-3.28,0-6.89-4.15a93.07,93.07,0,0,0-7-8,17.47,17.47,0,0,0-11.74-4.26q-8.81,0-8.81,7.42,0,4.27,4,8.77,4.63,4.95,9.37,9.89,2.26-5.19,10.39-5.19,6.1,0,6.1,6a9.25,9.25,0,0,1-.45,2.94,12,12,0,0,1-1.81,3.5q1.24,1.24,6.78,6.21,9.82,8.81,11.07,15.69Q1304.5,198.53,1304.5,199Z"/><path class="cls-7" d="M678.22,115.82c5.29.25,24.84-19.7,17.56-28.27s-13.28,4.28-17.56,9.85S669.23,115.39,678.22,115.82Z"/><path class="cls-7" d="M1019.36,331.64q0,5.52-3.8,7.13t-7.8,2.95V351q-.38,10.08-.38,9.13a49.64,49.64,0,0,1-1.61,13.6q-1.81,7.13-2.37,8.66A83.09,83.09,0,0,1,999,390q-2.47,4.19-10.82,10.65-4.75,3.81-13.86,6.09a43.84,43.84,0,0,1-5.89,1.14q-.76.19-16.52.19a38.66,38.66,0,0,1-15.19-3,24.87,24.87,0,0,1-6.46-3.61,21.08,21.08,0,0,1-5.51-7.23,50.91,50.91,0,0,1-4.74-13.51q-.38-1.9-1.52-16.17l-.19-8.94a18.22,18.22,0,0,1,0-3.8V339.25a22,22,0,0,0-2.28-.38,9.9,9.9,0,0,0-1.33-.48q-1-.29-3-.86a10.35,10.35,0,0,1-5.61-3.8q-2.76-3.23-2.76-5.9,0-3.42,8.18-5.33,1-.19,7.8-2.09V274.19q-1.87-.38-5-1-5-1.71-5-7.42,0-8.37,9.51-8.94l14.27.19,10.46.57h4.75a11.57,11.57,0,0,1,5.61,2q3.33,2,3.33,4.85a8.47,8.47,0,0,1-1.52,4.18q-3.81,6.47-13.7,6.47h-2.28q-.19.76-.19,9.13v35.19q12.93-.57,12.94,10.08,0,4.95-3.69,6.66a6.48,6.48,0,0,1-3,.86q-1.66.1-5.54.67a1,1,0,0,0-.74.38V363.6a70.43,70.43,0,0,0,1.34,9.7,21.52,21.52,0,0,0,5,10.08,34,34,0,0,0,5.35,4.19A14.69,14.69,0,0,0,958,388.9q8.78,0,16.62-6.28a33.46,33.46,0,0,0,10.31-14.84,28.88,28.88,0,0,0,1.34-4.95,32.25,32.25,0,0,0,.76-5.9V346.67l-.57-6.09a19.44,19.44,0,0,1-4,.19l-3.23-.38a12.17,12.17,0,0,1-6.94-3.43q-3.33-3-3.33-6.48a2.82,2.82,0,0,1,.19-1.91,15.14,15.14,0,0,1,8.37-6.29,30.81,30.81,0,0,1,7.23-1.14q-.57,1.14-.57-4.19V273.85q-8.75-3.24-8.75-7.05a9.4,9.4,0,0,1,2.38-6.48q2.38-2.67,8.28-3.24l12.37-.19q2.85,0,15,1.72,4.18,1.15,4.19,4,0,3.25-4.19,7.44a13.73,13.73,0,0,1-7,4,9.47,9.47,0,0,1-1.14.19l-.57,11.64.57,33.77h2.93q1,.19,2.74.38Q1019.36,321.94,1019.36,331.64Z"/><path class="cls-7" d="M1266.61,332.5q0,10.84-12.56,11-1.33,27.39-10.65,46.8-3,6.47-10.84,11.6-11.8,8-22.26,8-16.93,0-28.53-10.84a39.26,39.26,0,0,1-10.46-16.17q-1-2.47-2.47-7.42Q1165,362,1165,355.32l.57-6.66q0-.57-4.47-1.24t-7.51-5.23a13.23,13.23,0,0,1-2.85-7.61q0-1.52,2.09-4.18a20.64,20.64,0,0,1,2.66-3,18.57,18.57,0,0,1,7-1.71,44.14,44.14,0,0,0,1-10.27q.19-5.32.19-10.46,1.9-32.72,23.78-44.32a49.8,49.8,0,0,1,23.59-5.52,56.53,56.53,0,0,1,14.08,2.09q8.94,2.28,12.75,5.71,8.94,7.8,13.89,27.77,1.33,6.09,3.42,31.77Q1266.61,326.41,1266.61,332.5Zm-33.67,11.6v-3.42h-.57a12.68,12.68,0,0,1-4.37.76q-8.56,0-8.56-11.22,0-4,5.52-6.85,4.57-2.47,6.85-2.09c.12-.76.25-1.58.38-2.47v-9.89a58.22,58.22,0,0,0-3-19.21q-4-11.79-12.18-14.27a22.44,22.44,0,0,0-7.42-1.33q-15.41,0-18.64,14.08-1.71,7-4.38,23.21l-.19,14.84a48.63,48.63,0,0,1,6.09,1.33,16.62,16.62,0,0,1,5.71,4.95,6.92,6.92,0,0,1,1.52,2.28,11.29,11.29,0,0,1-11.22,11.41v4.38a66.51,66.51,0,0,0,3.82,22.26q5.73,16.36,17.39,16.36,9.17,0,15.67-10.08a41,41,0,0,0,6.3-19.21q.19-1.71.76-7.8A68.88,68.88,0,0,0,1232.94,344.1Z"/><path class="cls-7" d="M1377.51,378.63q0,7-5.23,15.31t-16.46,12.46A53.32,53.32,0,0,1,1336,410a60.75,60.75,0,0,1-20-3.8A54.56,54.56,0,0,1,1301.6,399q-3,7.61-11.22,7.61-11.61,0-11.6-12.75,0-24.73.76-27,1.52-4,6.28-4,7.61,0,10.46,2.87,2.28,3.45,6.47,9.19a41.82,41.82,0,0,0,9.32,8.24q10.65,7.09,21.31,7.09,7.42,0,12.08-3.72t4.66-10.42q0-7.83-8.37-17-7.23-8-14.46-11.27a14.14,14.14,0,0,1-6.18,7.51,17.45,17.45,0,0,1-9.42,2.95q-6.66,0-6.66-10.46a17.77,17.77,0,0,1,.19-2.85,20.19,20.19,0,0,1,1.71-4.56c.63-1.14,1-1.65,1-1.52a69.78,69.78,0,0,0-7.42-6.47q-14.84-11-20.54-23.21t-5.71-20.54q0-7.23,4.57-15.31a40.09,40.09,0,0,1,12.75-13.6q5.71-3.8,17.12-3.8a65,65,0,0,1,19,3.09q11.22,3.29,18.07,8.7l2.47-9.27q1.9-3.47,8.18-3.47,11.6,0,11.61,11.6l.38,24.16q-1,7.23-2.66,9.51-2.28,3-8.56,3-5.52,0-11.6-7-9.7-11.71-11.79-13.41a29.42,29.42,0,0,0-19.78-7.18q-14.84,0-14.84,12.5,0,7.2,6.66,14.77,7.8,8.34,15.79,16.67,3.8-8.75,17.5-8.75,10.27,0,10.27,10.08a15.59,15.59,0,0,1-.76,4.94,20.16,20.16,0,0,1-3,5.9q2.09,2.1,11.41,10.46,16.55,14.84,18.64,26.44Q1377.5,377.87,1377.51,378.63Z"/><path class="cls-7" d="M611.34,260.42a13.16,13.16,0,0,0-6.62-3.34,38,38,0,0,0-6-.57L584,257.64H551.5l-26.92,1.14h-3.46q-5.38,0-5.38,5.33,0,13.51,13.7,13.32l.19,10.7q0,3.63-1.14,19.11-.76,9-1.14,13.57-9.51,1.34-12.94,7.45a13.89,13.89,0,0,0-1.14,2.48,6.68,6.68,0,0,0,.39,2.49q1,2.29,1.35,3.25,2.31,5,11,6.12c.9.25,1.61.45,2.12.57v15.29q-.76,18.15-1.52,28.66a31.64,31.64,0,0,0-8.18,2.48q-4,2.11-6.47,7.84a10.49,10.49,0,0,0-.76,2.87q0,1,2.09,3.44a11.43,11.43,0,0,0,6.09,4,16,16,0,0,0,4.76.76c7.63,0,15.23-.78,22.85-1,5.78-.2,11.59.05,17.37,0a10.54,10.54,0,0,0,6.75-2.81q1.33-1.09,1.33-7.42a9.62,9.62,0,0,0-5.14-8.72q-3-1.75-12-1.74l-3.79-.59V385.1l-.76-11,.76-14.46V344q2.36.19,4.34.38,4.73.19,6.51.38v2.47a30,30,0,0,0,1.14,5.71,11,11,0,0,0,3.71,5.8q2.95,2.57,4.28,2.57a8.1,8.1,0,0,0,4.76-1.62,14.67,14.67,0,0,0,2.85-2.38,17.13,17.13,0,0,0,4-9.7q.38-4.95,1-10.08.38-2.09.57-4,.38-4,.38-5.71a42.85,42.85,0,0,0-.38-5.42,40.73,40.73,0,0,0-1.33-6.18q-2.28-6.66-5.33-6.66-4,0-7.42,4.76a19,19,0,0,0-3.8,9.7q-.19.57-.38.57L551.5,324l1.14-18.26v-8.94a119.26,119.26,0,0,1,1.53-16.36,77.9,77.9,0,0,1,15.1-1.33h12.81a55.54,55.54,0,0,1,8.41.39,44.47,44.47,0,0,0-.19,5.81q0,10.07,5.9,14.71a4.42,4.42,0,0,0,3.23,1,11,11,0,0,0,8.75-4q2.47-3.05,3.42-8.79,1.9-12.22,2.47-18.34a11.65,11.65,0,0,0,.38-3.44Q614.46,263.19,611.34,260.42Z"/><path class="cls-7" d="M767.25,401.35q0,3.62-5.23,5.71a19.17,19.17,0,0,1-8.85,1.71l-8.56.19H725q-5.33-.57-6.85-1.33a5.53,5.53,0,0,1-3.43-5.52q0-5.14,4.95-7.42a83.71,83.71,0,0,1,8.37-2.28V392q0-.76-3-20.93-3.24-20.94-4-23.6-3.81,2.47-12,7.42Q698.55,361,695.32,361q-3,0-12.18-6.66-6.47-4.76-12.75-9.71-3.43,12.94-11.23,47.77,14.65,1,14.65,8.75,0,7-14.27,7l-28.73-.38q-10.09-.38-10.09-6.09,0-5.52,6.66-7.61,4.75-.76,9.51-1.71,5.71-19,13.7-55.95-4.76-3.24-17.13-5.14-6.28-1.14-6.28-5.9a10.72,10.72,0,0,1,4.19-8.47,13.25,13.25,0,0,1,8.56-3.52q6.28,0,17.51,3.23.57-1.89,10.09-40.6Q658,274.93,658,264.69q0-8.53,14.27-8.54l18.84.38,28-.38q3.23-.57,9.13,1.53,7.8,2.86,7.8,7.83,0,8.21-11,10.5.38.77,5.71,23.67,1.71,7.44,4.76,18.9,6.66-2.47,8.94-2.47a11.87,11.87,0,0,1,7.61,2.76,8.94,8.94,0,0,1,3.42,7.33q0,3.81-5.71,8.18L741,340.84q4.76,21.32,10.66,50.81,1.71-.18,3.8-.38a13.18,13.18,0,0,1,7.8,2.29A9.08,9.08,0,0,1,767.25,401.35Zm-50.81-75-10.78-48.93a38.44,38.44,0,0,0-8.77-1.12,29.13,29.13,0,0,0-8.39,1.14q-2.67,8.4-8,29.18-.38,1.72-1.72,7.44L676.48,324l19.74,14.88Q708.62,331.5,716.44,326.38Z"/><path class="cls-7" d="M884,346a41.74,41.74,0,0,0-11.77-12.55c-1.76-1.29-3.67-2.55-5.72-3.77,5.17-6.24,13.69-19.5,13.69-29q0-15.79-7.49-27.58a28.52,28.52,0,0,0-8.61-8.18c-4.49-2.66-6.22-4.92-18.07-6.44q-3.93-.57-12-1.14L812.9,257q-13.47,0-21.33,4.75-2.62,1.53-2.62,6.09a12.12,12.12,0,0,0,2.58,7.8,8.67,8.67,0,0,0,7.19,3.23h1.84q.37.95.37,7v5.67q-.94,13.41-.94,21.35v10.2l-.88.24h.17a32.06,32.06,0,0,1-4.24.89,18.45,18.45,0,0,0-7.61,2.46,16.78,16.78,0,0,0-2.24,1.46,10.44,10.44,0,0,0-2,6.45q0,3.59,5.14,6.42a18.44,18.44,0,0,0,7.61,2.46,36.3,36.3,0,0,1,5.14,1.13v10.2q0,7.94,1,21.35v5.67q0,6-.37,7h-1.87a8.87,8.87,0,0,0-7.31,3.23,12,12,0,0,0-2.62,7.8q0,4.57,2.66,6.09,8,4.75,21.69,4.75l21.5-.38q8.18-.57,12.18-1.14,18.07-2.28,24.92-6.28a28.79,28.79,0,0,0,8.75-8.18q7.61-11.8,7.61-27.58Q889.13,354.35,884,346Zm-61.92-22.68V316l-.19-15-.19-2.85q-.38-11.6-.19-13.89V281.9a55.62,55.62,0,0,1,8.83-.76,92.42,92.42,0,0,1,17.29,1.33c6.39,1,4.26,2.07,6.52,2.83q.75.19,2.26,2.85a20,20,0,0,1,3,11.22c0,4.44-1,9.24-3.77,12.83-3.33,4.38-8.94,7.73-13.74,10.28a18.17,18.17,0,0,1-3,.8c.35,0,.71,0,1.07,0h-.55q-6.84,1.26-16.85,2.73v-2.73ZM865,379.66q-1.53,2.66-2.29,2.85a98.16,98.16,0,0,1-13.18,2.66,95.47,95.47,0,0,1-17.58,1.33,57.45,57.45,0,0,1-9-.76v-2.28q-.19-2.28.19-13.89l.19-2.85.19-15V341.61q9.12,1.34,15.59,2.5a93.57,93.57,0,0,1,13.83,3.2Q868,353.4,868,368.43A19.74,19.74,0,0,1,865,379.66Z"/><path class="cls-7" d="M1146.78,390.06v6.7a23.68,23.68,0,0,1-1.34,6.71q-2.69,3.45-10,3.64-10.54.19-28.93.57-7.47.19-21.84.77l-13,.38h-9q-24.33,0-24.33-10.34,0-5.17,11.69-9.58,0-1,.19-22.6l.57-14v-9.58q-14.56-2.11-14.56-10.34,0-11.3,14.56-12.84V275.12h-1.91a14.83,14.83,0,0,1-7.09-2.11q-4.41-2.68-4.41-6.32a10.29,10.29,0,0,1,1.34-4.21q3.25-6.32,16.47-6.32h25.67q11.49,0,11.49,11.49,0,9.77-15.9,9.77h-2.68l.58,19.12V318l8.92,1.91q7,1.92,7,6.88a14.27,14.27,0,0,1-2,6.6,15.3,15.3,0,0,1-4.88,5.64q-3.45,2.11-9.58,2.49V375q.19,4.79.76,13.39a104.68,104.68,0,0,0,17.3,1.53h15.21q2.47,0,11-.76a39.24,39.24,0,0,0,5.13-1.72v-15.9q.78-9,1.57-18,1.76-8.62,11.58-8.62,7.46,0,8.84,5.75.78,3.26,1.18,14,.19,7.47.39,14.75Z"/></g></g></svg>