<svg xmlns="http://www.w3.org/2000/svg" viewBox="0 0 914.13 660.93"><defs><style>.cls-1{fill:#199480;}.cls-2{fill:#ffc03f;}.cls-3{fill:#ff524b;}.cls-4{fill:#fa9500;}.cls-5{fill:#fff;}.cls-6{fill:#b70950;}.cls-7{fill:#f6c159;}.cls-8{fill:#2e1149;}</style></defs><title>logo-vertical</title><g id="Layer_2" data-name="Layer 2"><g id="Layer_1-2" data-name="Layer 1"><path class="cls-1" d="M439,558.42c-3.13,1.51-6.45,3-9.89,4.42-8.9-32.32-56-55.25-65.54-59.58a2.17,2.17,0,0,0-2.63.3c-.31.33-.95,1.29-.06,2.94,20,37.25,43.44,53.62,57.34,60.5A202.39,202.39,0,0,1,380,576.21c-8.25-41.42-68.95-71-81.15-76.55a2.34,2.34,0,0,0-2.87.3c-.34.36-1,1.4,0,3.25,25.16,46.89,55.26,66.78,70.86,74.43A207.9,207.9,0,0,1,322,576.19c-4.75-38.86-58.49-70.7-69.3-76.73a2.26,2.26,0,0,0-2.79.07c-.36.32-1.1,1.27-.3,3.11,17,38.94,38.73,59.65,53.24,69.92-4.25-1-8.44-2.16-12.53-3.41a190.07,190.07,0,0,1-36.25-15.54c-.16-33.87-36.25-68.67-46.56-75.56a2.15,2.15,0,0,0-2.63-.13c-.36.27-1.14,1.12-.53,2.87,1.41,4.12,2.74,8.08,4,11.87,6.14,18.27,11,32.64,17.44,42.68l-2.07-1.54c-9.11-6.84-18.87-13.95-29.36-19.25,8.83-38.22-31.18-86.47-39.36-95.82a2.26,2.26,0,0,0-2.66-.88c-.44.18-1.46.83-1.33,2.83,3.15,46.66,19,74.41,30,88.4a62.87,62.87,0,0,0-15.54-2.87c-26.67-2.94-57.82,9.18-66.73,13a2.14,2.14,0,0,0-1.53,2.11c0,.45.31,1.55,2.09,2,48.67,12.38,78.41.14,87.23-4.47C198.27,524,209.16,532.1,219.69,540l1,.74c-37.53-6.43-85.82,19.42-95.58,24.95a2.32,2.32,0,0,0-1.45,2.5c.09.49.53,1.65,2.61,1.93,63.65,8.71,99.35-11.14,109.86-18.35a200.75,200.75,0,0,0,28.08,15.4C228.14,571,190.95,603.07,180,613.25a2.34,2.34,0,0,0-.83,2.77c.2.45.9,1.48,3,1.27,62.81-6.12,93.26-33.22,101.94-42.46,5.19,1.71,10.44,3.22,15.63,4.49,6.32,1.55,12.79,2.82,19.31,3.8-34.63,12.5-62.6,55-70.68,68.35a2.33,2.33,0,0,0,0,2.89c.32.38,1.27,1.18,3.22.41,59.64-23.48,81.13-58.22,86.8-69.62a216.4,216.4,0,0,0,29.45-.24c-22.6,17.63-33.85,54.9-36.87,66.45a2.13,2.13,0,0,0,.73,2.5c.38.25,1.41.71,2.86-.43C372,624.12,381.58,595.09,384,583a209.16,209.16,0,0,0,33.76-8.14l-.08.07c-27.35,23-41.07,68.47-44.84,82.88a2.33,2.33,0,0,0,.78,2.78c.41.27,1.56.77,3.2-.53q3.42-2.67,6.6-5.34c49-41.1,56.22-80.85,57.2-88.68a3,3,0,0,0,0-.33l1.46-.69a3.46,3.46,0,0,0,2-2.92,3.94,3.94,0,0,0-1.68-3.5A3.44,3.44,0,0,0,439,558.42Z"/><path class="cls-1" d="M475.18,558.42c3.13,1.51,6.45,3,9.89,4.42,8.9-32.32,56-55.25,65.54-59.58a2.17,2.17,0,0,1,2.63.3c.31.33.95,1.29.06,2.94-20,37.25-43.44,53.62-57.34,60.5a202.39,202.39,0,0,0,38.16,9.21c8.25-41.42,68.95-71,81.15-76.55a2.34,2.34,0,0,1,2.87.3c.34.36,1,1.4,0,3.25C593,550.1,562.91,570,547.31,577.64a207.9,207.9,0,0,0,44.82-1.45c4.75-38.86,58.49-70.7,69.3-76.73a2.26,2.26,0,0,1,2.79.07c.36.32,1.1,1.27.3,3.11-17,38.94-38.73,59.65-53.24,69.92,4.25-1,8.44-2.16,12.53-3.41a190.07,190.07,0,0,0,36.25-15.54c.16-33.87,36.25-68.67,46.56-75.56a2.15,2.15,0,0,1,2.63-.13c.36.27,1.14,1.12.53,2.87-1.41,4.12-2.74,8.08-4,11.87-6.14,18.27-11,32.64-17.44,42.68l2.07-1.54c9.11-6.84,18.87-13.95,29.36-19.25-8.83-38.22,31.18-86.47,39.36-95.82a2.26,2.26,0,0,1,2.66-.88c.44.18,1.46.83,1.33,2.83-3.15,46.66-19,74.41-30,88.4a62.87,62.87,0,0,1,15.54-2.87c26.67-2.94,57.82,9.18,66.73,13a2.14,2.14,0,0,1,1.53,2.11c0,.45-.31,1.55-2.09,2-48.67,12.38-78.41.14-87.23-4.47C715.85,524,705,532.1,694.44,540l-1,.74c37.53-6.43,85.82,19.42,95.58,24.95a2.32,2.32,0,0,1,1.45,2.5c-.09.49-.53,1.65-2.61,1.93-63.65,8.71-99.35-11.14-109.86-18.35a200.75,200.75,0,0,1-28.08,15.4c36.07,3.83,73.25,35.93,84.23,46.11A2.34,2.34,0,0,1,735,616c-.2.45-.9,1.48-3,1.27-62.81-6.12-93.26-33.22-101.94-42.46-5.19,1.71-10.44,3.22-15.63,4.49-6.32,1.55-12.79,2.82-19.31,3.8,34.63,12.5,62.6,55,70.68,68.35a2.33,2.33,0,0,1,0,2.89c-.32.38-1.27,1.18-3.22.41-59.64-23.48-81.13-58.22-86.8-69.62a216.4,216.4,0,0,1-29.45-.24c22.6,17.63,33.85,54.9,36.87,66.45a2.13,2.13,0,0,1-.73,2.5c-.38.25-1.41.71-2.86-.43-37.52-29.32-47.12-58.35-49.56-70.41a209.16,209.16,0,0,1-33.76-8.14l.08.07c27.35,23,41.07,68.47,44.84,82.88a2.33,2.33,0,0,1-.78,2.78c-.41.27-1.55.77-3.2-.53q-3.42-2.67-6.6-5.34c-49-41.1-56.22-80.85-57.2-88.68a3,3,0,0,1,0-.33L472,565a3.46,3.46,0,0,1-2-2.92,3.94,3.94,0,0,1,1.68-3.5A3.44,3.44,0,0,1,475.18,558.42Z"/><path d="M803.27,351.54c0,99-155,97.54-346.21,97.54s-346.21,1.41-346.21-97.54S201.4,92.86,457.06,92.86C731.13,92.86,803.27,252.58,803.27,351.54Z"/><path class="cls-2" d="M858.62,369.57H351.84c-.18,28.14-1.62,56.25-3.14,84.46-.58,10.67-1.24,21.36-1.69,32.07q.92,23.74,3,47.37H858.62c8.54,0,15.46-8.07,15.46-18V387.58C874.07,377.64,867.15,369.57,858.62,369.57Z"/><path class="cls-3" d="M806,561.57h48.85c10.6,0,19.19-10,19.19-22.36V385.9c0,12.35-8.6,22.36-19.19,22.36h-4.47v.07H806c-7.36,0-13.33,7-13.33,15.53V546C792.7,554.62,798.67,561.57,806,561.57Z"/><path class="cls-4" d="M900.8,586.88H811.9c-10.6,0-19.19-10-19.19-22.37V426.32c0,12.35,8.6,22.36,19.19,22.36h44.52v.07H900.8c7.36,0,13.33,7,13.33,15.53V571.35C914.13,579.92,908.16,586.88,900.8,586.88Z"/><path class="cls-2" d="M55.51,369.57H562.28c.18,28.14,1.62,56.25,3.14,84.46.58,10.67,1.24,21.36,1.69,32.07q-.92,23.74-3,47.37H55.51c-8.54,0-15.46-8.07-15.46-18V387.58C40.05,377.64,47,369.57,55.51,369.57Z"/><path class="cls-3" d="M108.1,561.57H59.25c-10.6,0-19.19-10-19.19-22.36V385.9c0,12.35,8.6,22.36,19.19,22.36h4.47v.07H108.1c7.36,0,13.33,7,13.33,15.53V546C121.43,554.62,115.46,561.57,108.1,561.57Z"/><path class="cls-4" d="M13.33,586.88h88.9c10.6,0,19.19-10,19.19-22.37V426.32c0,12.35-8.6,22.36-19.19,22.36H57.71v.07H13.33C6,448.76,0,455.72,0,464.29V571.35C0,579.92,6,586.88,13.33,586.88Z"/><path class="cls-2" d="M262.84,312.73a5.2,5.2,0,0,1-.67,3.13q-.75,1.19-3.13,1.34a88.77,88.77,0,0,1-4.1,11.71,21.09,21.09,0,0,1-8.73,8.73,22.67,22.67,0,0,1-10.67,2.54l-14-.08a20.68,20.68,0,0,1-5.3-.76q-2.09-.91-2.09-4,0-1.9,2.56-2.66,1.7-.23,3.41-.53a1.23,1.23,0,0,1,.08-.38v-9.89q-.08-.89-.3-3.2a1.84,1.84,0,0,0-.15-1q-.45-.22-1.94-.82-2.46-1-2.61-3c-.1-.69-.15-1.07-.15-1.11a2.69,2.69,0,0,1,1.61-2.68,15.46,15.46,0,0,1,3.54-.59V289.59q-6-.45-6-5.27a3.17,3.17,0,0,1,.82-2.14,3.05,3.05,0,0,1,2.24-1h5.89l6.72-.45H235a22.61,22.61,0,0,1,11.27,2.61,21.26,21.26,0,0,1,5.67,4.18,30.29,30.29,0,0,1,4.63,8.73q2.84,7.61,2.84,11.19l.22,1.19q2.24.37,2.72,1.08A6.12,6.12,0,0,1,262.84,312.73ZM250.53,317a12.51,12.51,0,0,1-3.73-1.27,3.79,3.79,0,0,1-1.57-3.29q0-3.21,5.45-3.81v-.3a36.5,36.5,0,0,0-1.34-6,20.07,20.07,0,0,0-2.46-5.53,14.83,14.83,0,0,0-5.89-5.38,23.82,23.82,0,0,0-10.45-2.09h-2.09l-.3,5.23V309a11.52,11.52,0,0,1,3.69,1.2q2.36,1.35,2.36,3.21,0,4.34-4.78,4.41,0,.75-.07,1.64v12.26h4.21q11.81,0,15.51-9.19A28.44,28.44,0,0,0,250.53,317Z"/><path class="cls-2" d="M294.92,336.16q0,2.91-2.61,3.36l-1,.22h-1.87a23.88,23.88,0,0,0-4.18.6h-4.78q-2.24-.07-3.58-.22-2.16-.22-3.43-.45-3.21-.6-3.21-2.91a4,4,0,0,1,.61-2.16c.05,0,.28-.22.69-.52a20.93,20.93,0,0,1,2.59-1.12,23,23,0,0,1,3.73-.67q.15-2.39.15-14,0-1,.11-3.17t.11-3.17a8.61,8.61,0,0,1-1-.22q-5.52-.52-5.52-3.66t2.83-4a7.75,7.75,0,0,1,1.3-.22l2.06.3q.07-4,.23-10l.08-6.12-3.37-1q-2.15-.82-2.15-2.24a2.8,2.8,0,0,1,.15-.89,4,4,0,0,1,1.27-1.72,2.94,2.94,0,0,1,1.87-.82h1l6.57-.52h4l2,.22q4,.67,4,3.51t-5,3.21a33.31,33.31,0,0,0-.52,4.63v10.89a1.19,1.19,0,0,0-.07.3q4.4,1.57,4.4,4.1a4.22,4.22,0,0,1-1.34,3.06,3.72,3.72,0,0,1-3.22,1.12q-.15,5-.29,8.13-.15,3.88-.14,4.63v4.1a25.83,25.83,0,0,0,0,2.83l.07.08q.45,0,1.87.15a14.3,14.3,0,0,1,3.51.9A4,4,0,0,1,294.92,336.16Z"/><path class="cls-2" d="M360.88,337.35q0,1.42-2.05,2.24a7.52,7.52,0,0,1-3.47.67l-3.36.07h-7.69a9.68,9.68,0,0,1-2.69-.52,2.17,2.17,0,0,1-1.34-2.16,3,3,0,0,1,1.94-2.91,32.82,32.82,0,0,1,3.28-.9v-.15q0-.3-1.19-8.21-1.27-8.21-1.57-9.25-1.49,1-4.7,2.91-4.1,2.39-5.37,2.39t-4.78-2.61q-2.54-1.86-5-3.81-1.34,5.08-4.4,18.73,5.75.37,5.75,3.43,0,2.76-5.6,2.76l-11.27-.15q-4-.15-4-2.39t2.61-3q1.86-.3,3.73-.67,2.24-7.46,5.37-21.94-1.87-1.27-6.72-2-2.46-.45-2.46-2.31a4.2,4.2,0,0,1,1.64-3.32,5.19,5.19,0,0,1,3.36-1.38,26.76,26.76,0,0,1,6.86,1.27q.22-.74,4-15.92-3.73-.45-3.73-4.46,0-3.35,5.6-3.35l7.39.15,11-.15a7.57,7.57,0,0,1,3.58.6q3.06,1.12,3.06,3.07,0,3.22-4.33,4.12.15.3,2.24,9.28.67,2.92,1.87,7.41a13,13,0,0,1,3.51-1,4.65,4.65,0,0,1,3,1.08,3.51,3.51,0,0,1,1.34,2.87q0,1.49-2.24,3.21l-3.43,2.54q1.86,8.36,4.18,19.92l1.49-.15a5.17,5.17,0,0,1,3.06.9A3.56,3.56,0,0,1,360.88,337.35ZM341,308l-4.23-19.18a15.07,15.07,0,0,0-3.44-.44,11.42,11.42,0,0,0-3.29.45q-1,3.29-3.14,11.44-.15.68-.67,2.92l-.9,3.89,7.74,5.83Q337.89,310,341,308Z"/><path class="cls-2" d="M461.76,312.73a5.2,5.2,0,0,1-.67,3.13q-.75,1.19-3.13,1.34a88.76,88.76,0,0,1-4.1,11.71,21.09,21.09,0,0,1-8.73,8.73,22.67,22.67,0,0,1-10.67,2.54l-14-.08a20.68,20.68,0,0,1-5.3-.76q-2.09-.91-2.09-4,0-1.9,2.56-2.66,1.7-.23,3.41-.53a1.23,1.23,0,0,1,.08-.38v-9.89q-.08-.89-.3-3.2a1.84,1.84,0,0,0-.15-1q-.45-.22-1.94-.82-2.46-1-2.61-3c-.1-.69-.15-1.07-.15-1.11a2.69,2.69,0,0,1,1.61-2.68,15.46,15.46,0,0,1,3.54-.59V289.59q-6-.45-6-5.27a3.17,3.17,0,0,1,.82-2.14,3.05,3.05,0,0,1,2.24-1H422l6.72-.45h5.22a22.61,22.61,0,0,1,11.27,2.61,21.26,21.26,0,0,1,5.67,4.18,30.29,30.29,0,0,1,4.63,8.73q2.83,7.61,2.84,11.19l.22,1.19q2.24.37,2.72,1.08A6.11,6.11,0,0,1,461.76,312.73ZM449.45,317a12.51,12.51,0,0,1-3.73-1.27,3.79,3.79,0,0,1-1.57-3.29q0-3.21,5.45-3.81v-.3a36.5,36.5,0,0,0-1.34-6,20.07,20.07,0,0,0-2.46-5.53,14.83,14.83,0,0,0-5.89-5.38,23.82,23.82,0,0,0-10.45-2.09h-2.09l-.3,5.23V309a11.52,11.52,0,0,1,3.69,1.2q2.36,1.35,2.36,3.21,0,4.34-4.78,4.41,0,.75-.07,1.64v12.26h4.21q11.81,0,15.5-9.19A28.43,28.43,0,0,0,449.45,317Z"/><path class="cls-2" d="M510.19,325.78q0,1.64-.3,5.82-.3,3.88-.37,4.33-.08.15-.52,1.19-1.34,2.91-6.12,2.91h-4.63l-8.8-.67q-1.57-.07-7,.1l-8.51.58a6.3,6.3,0,0,1-1.87-.3,4.48,4.48,0,0,1-2.39-1.57,3,3,0,0,1-.82-1.35,4.14,4.14,0,0,1,.3-1.12,5.93,5.93,0,0,1,2.54-3.07,12.44,12.44,0,0,1,3.21-1q.3-4.12.6-11.24v-6l-.83-.22q-3.4-.45-4.31-2.4l-.53-1.27a2.61,2.61,0,0,1-.15-1,5.49,5.49,0,0,1,.45-1q1.34-2.4,5.08-2.92.15-1.8.45-5.32.45-6.07.45-7.49l-.08-4.2q-5.37.08-5.37-5.22a1.86,1.86,0,0,1,2.11-2.09h1.36l10.56-.45h12.76l5.78-.45a14.87,14.87,0,0,1,2.34.22,5.17,5.17,0,0,1,2.59,1.31,3.15,3.15,0,0,1,1.22,2.36,4.58,4.58,0,0,1-.15,1.35q-.22,2.4-1,7.19a7.35,7.35,0,0,1-1.34,3.45,4.31,4.31,0,0,1-3.43,1.57,1.73,1.73,0,0,1-1.27-.38q-2.31-1.82-2.31-5.77a17.59,17.59,0,0,1,.07-2.28,21.76,21.76,0,0,0-3.3-.15h-5a30.58,30.58,0,0,0-5.92.52,46.71,46.71,0,0,0-.6,6.42v3.51l-.45,7.16,5.82.22s.1-.08.15-.22a7.45,7.45,0,0,1,1.49-3.81,3.7,3.7,0,0,1,2.91-1.87q1.19,0,2.09,2.61a15.8,15.8,0,0,1,.52,2.43,16.63,16.63,0,0,1,.15,2.13q0,.67-.15,2.24-.07.75-.22,1.57-.22,2-.37,4a6.72,6.72,0,0,1-1.57,3.81,5.79,5.79,0,0,1-1.12.93,3.18,3.18,0,0,1-1.87.63,3.38,3.38,0,0,1-1.68-1,4.32,4.32,0,0,1-1.46-2.28,11.83,11.83,0,0,1-.45-2.24v-1q-.7-.07-2.55-.15l-1.7-.15v6.12l-.3,5.67.3,4.33.07.08c.6,0,1.47-.11,2.61-.22l15.22.67c0-.25,0-.87.07-1.87l.22-2.54.22-1.64a12.12,12.12,0,0,1,.6-4.7,3.25,3.25,0,0,1,3-2q2.16,0,2.54.52a5.7,5.7,0,0,1,1.12,3.21Q510.19,319.82,510.19,325.78Z"/><path class="cls-2" d="M604,332.95v2.61a9.22,9.22,0,0,1-.52,2.61q-1,1.34-3.88,1.42l-11.27.22q-2.91.08-8.51.3l-5.07.15h-3.51q-9.48,0-9.48-4,0-2,4.55-3.73,0-.37.07-8.8l.22-5.45v-3.73q-5.67-.82-5.67-4,0-4.4,5.67-5V288.18h-.75a5.78,5.78,0,0,1-2.76-.82,3,3,0,0,1-1.72-2.46,4,4,0,0,1,.52-1.64q1.27-2.46,6.42-2.46h10q4.48,0,4.48,4.48,0,3.81-6.19,3.81h-1l.22,7.45v8.34l3.47.74q2.72.75,2.72,2.68a5.56,5.56,0,0,1-.78,2.57,6,6,0,0,1-1.9,2.2,8.16,8.16,0,0,1-3.73,1v13q.07,1.86.3,5.22a40.77,40.77,0,0,0,6.74.6h5.92q1,0,4.29-.3a15.29,15.29,0,0,0,2-.67v-6.19l.61-7q.69-3.36,4.51-3.36,2.91,0,3.44,2.24a35.18,35.18,0,0,1,.46,5.45q.08,2.91.15,5.75Z"/><path class="cls-2" d="M654.12,310.41q0,4.25-4.92,4.33A47.53,47.53,0,0,1,645,333.1a11.45,11.45,0,0,1-4.25,4.55,15.35,15.35,0,0,1-19.92-1.12,15.4,15.4,0,0,1-4.1-6.34q-.37-1-1-2.91a32.46,32.46,0,0,1-1.49-7.91l.22-2.61q0-.22-1.75-.49a4.28,4.28,0,0,1-2.95-2.05,5.19,5.19,0,0,1-1.12-3,3.1,3.1,0,0,1,.82-1.64,8.2,8.2,0,0,1,1-1.19,7.29,7.29,0,0,1,2.76-.67,17.31,17.31,0,0,0,.37-4q.07-2.09.07-4.1.75-12.83,9.33-17.39a19.54,19.54,0,0,1,9.25-2.16,22.16,22.16,0,0,1,5.52.82,12.08,12.08,0,0,1,5,2.24q3.51,3.06,5.45,10.89.52,2.39,1.34,12.46Q654.12,308,654.12,310.41ZM640.92,315v-1.34h-.22a5,5,0,0,1-1.72.3q-3.36,0-3.36-4.4,0-1.57,2.16-2.69a4.79,4.79,0,0,1,2.69-.82c0-.3.1-.62.15-1v-3.88a22.83,22.83,0,0,0-1.19-7.54q-1.57-4.63-4.78-5.6a8.79,8.79,0,0,0-2.91-.52q-6,0-7.31,5.52-.67,2.76-1.72,9.1l-.07,5.82a19,19,0,0,1,2.39.52,6.51,6.51,0,0,1,2.24,1.94,2.71,2.71,0,0,1,.6.9,4.43,4.43,0,0,1-4.4,4.48v1.72a26.09,26.09,0,0,0,1.5,8.73q2.25,6.42,6.82,6.42,3.6,0,6.15-4a16.07,16.07,0,0,0,2.47-7.54q.07-.67.3-3.06A27,27,0,0,0,640.92,315Z"/><path class="cls-2" d="M700,329.66a11.43,11.43,0,0,1-2.05,6,12.45,12.45,0,0,1-6.45,4.89,20.91,20.91,0,0,1-7.76,1.42,23.81,23.81,0,0,1-7.83-1.49,21.39,21.39,0,0,1-5.67-2.83,4.38,4.38,0,0,1-4.4,3q-4.55,0-4.55-5,0-9.7.3-10.6a2.37,2.37,0,0,1,2.46-1.57q3,0,4.1,1.13.89,1.35,2.54,3.61a16.39,16.39,0,0,0,3.66,3.23,15,15,0,0,0,8.36,2.78,7.36,7.36,0,0,0,4.74-1.46,4.94,4.94,0,0,0,1.83-4.09q0-3.07-3.28-6.67a17.58,17.58,0,0,0-5.67-4.42,5.55,5.55,0,0,1-2.43,2.95,6.85,6.85,0,0,1-3.69,1.16q-2.61,0-2.61-4.1a7,7,0,0,1,.07-1.12,8,8,0,0,1,.67-1.79q.37-.67.37-.6a27.28,27.28,0,0,0-2.91-2.54q-5.82-4.33-8.06-9.1a19.82,19.82,0,0,1-2.24-8.06,12.28,12.28,0,0,1,1.79-6,15.73,15.73,0,0,1,5-5.34q2.24-1.49,6.71-1.49a25.5,25.5,0,0,1,7.46,1.21,20.78,20.78,0,0,1,7.09,3.41l1-3.64q.75-1.36,3.21-1.36,4.55,0,4.55,4.55l.15,9.48a8.88,8.88,0,0,1-1,3.73q-.9,1.19-3.36,1.19-2.16,0-4.55-2.74a61.5,61.5,0,0,0-4.63-5.26,11.55,11.55,0,0,0-7.76-2.82q-5.82,0-5.82,4.9a8.92,8.92,0,0,0,2.61,5.79q3.06,3.27,6.19,6.54,1.49-3.43,6.87-3.43,4,0,4,4a6.11,6.11,0,0,1-.3,1.94,7.92,7.92,0,0,1-1.19,2.31q.82.82,4.48,4.1,6.49,5.82,7.31,10.37Q700,329.36,700,329.66Z"/><path class="cls-2" d="M286.17,274.71c3.5.17,16.41-13,11.6-18.68s-8.77,2.83-11.6,6.51S280.22,274.43,286.17,274.71Z"/><path d="M354.93,537.71s-25-15.8-30.62-6.06S348.91,554,348.91,554s-33.32,5.46-23.76,16.54,28.95-1,28.95-1-10.21,15.29-1.52,20.64S364.82,571,364.82,571s5,21.06,19.3,16.67-7.42-24.94-7.42-24.94,20.43,4.78,25.53-2.86-23.39-11-23.39-11,20-12.44,13.62-22.78S372,535.62,372,535.62s1.67-18.94-15.09-22.87S354.93,537.71,354.93,537.71Z"/><path class="cls-5" d="M371,556.38c.71-5.05-10-13.94-14.17-5.53S369.34,568.15,371,556.38Z"/><path d="M299.39,584.95s-18.85-11.9-23.07-4.57,18.53,16.82,18.53,16.82-25.1,4.11-17.9,12.46,21.81-.72,21.81-.72-7.69,11.52-1.14,15.55S306.85,610,306.85,610s3.78,15.87,14.54,12.56-5.59-18.79-5.59-18.79,15.39,3.6,19.23-2.16-17.62-8.29-17.62-8.29,15.09-9.37,10.26-17.16-15.42,7.21-15.42,7.21,1.26-14.27-11.37-17.23S299.39,584.95,299.39,584.95Z"/><path class="cls-5" d="M311.5,599c.53-3.81-7.53-10.5-10.68-4.16S310.25,607.88,311.5,599Z"/><path d="M258.4,532.19s-12.41-15.2-18-10.26,10.76,19.22,10.76,19.22-22.1-3.58-18.42,5.39,18.4,5.49,18.4,5.49-9.64,7.46-5.3,12.65,11.74-9.51,11.74-9.51-1.28,14.3,8.62,14.54.59-17.24.59-17.24,11.83,7.31,16.65,3.58-12.39-11.84-12.39-11.84,15.21-3.6,13.36-11.45-14.88,1.71-14.88,1.71,5-11.56-4.67-17.55S258.4,532.19,258.4,532.19Z"/><path class="cls-5" d="M264.57,547.32c1.51-3-3.35-10.87-7.75-6.46S261.05,554.37,264.57,547.32Z"/><path d="M598.78,611.72s23.93-17.42,16.94-26.22-29.84,14.62-29.84,14.62,7.23-33-6.6-28.18-9.8,27.26-9.8,27.26-10.44-15.13-18.62-9,13.36,18.47,13.36,18.47-21.42-3.12-22.62,11.78,25.92,2.31,25.92,2.31-12,17.22-6.76,24.78,18.86-17.68,18.86-17.68,4.16,23.21,16.14,21.06-1.34-22.56-1.34-22.56,17,8.55,26.82-5.58S598.78,611.72,598.78,611.72Z"/><path class="cls-5" d="M575.49,619.76c4.43,2.52,16.65-4.14,10.37-11.13S565.17,613.88,575.49,619.76Z"/><path d="M549.72,549.55s18-13.13,12.76-19.75-22.48,11-22.48,11,5.44-24.84-5-21.23-7.38,20.53-7.38,20.53-7.86-11.4-14-6.8,10.06,13.92,10.06,13.92-16.14-2.35-17,8.87,19.52,1.74,19.52,1.74-9,13-5.1,18.67,14.21-13.32,14.21-13.32,3.13,17.49,12.16,15.87-1-17-1-17,12.8,6.44,20.21-4.2S549.72,549.55,549.72,549.55Z"/><path class="cls-5" d="M532.18,555.61c3.34,1.9,12.54-3.12,7.81-8.39S524.4,551.18,532.18,555.61Z"/><path d="M638.94,561.27s18.71-5.92,16.17-12.92-21.84,2.91-21.84,2.91,11.49-19.21,1.79-19.11-11.9,15.07-11.9,15.07-3.38-11.71-9.8-9.6,4.51,14.43,4.51,14.43-12.81-6.47-16.7,2.64S617,561.61,617,561.61s-11.16,8.3-9.47,14.16,15.58-7.14,15.58-7.14-2.27,15.47,5.71,16.64,3.91-14.46,3.91-14.46,8.88,9,18,2.14S638.94,561.27,638.94,561.27Z"/><path class="cls-5" d="M621.94,560.27c1.52,3,10.71,3.84,9.81-2.33S618.41,553.23,621.94,560.27Z"/><path d="M440.25,551.45s-40.47,1.15-39.39,16.48,45,6.58,45,6.58-33.66,31.62-14.36,36.9,32.14-23.18,32.14-23.18.08,25.15,14,24.59-.78-31.17-.78-31.17,21.76,20.09,34.63,4.2S484,563.2,484,563.2s26.84-10.16,26.8-22.73-34.95,5.36-34.95,5.36,13.26-29.41-1.92-36.25S458,536.07,458,536.07s-12.56-22.78-34.58-14.45S440.25,551.45,440.25,551.45Z"/><path class="cls-5" d="M472.75,560.39c-3.05-6.28-22-8.2-20.31,4.54S479.85,575,472.75,560.39Z"/><path class="cls-3" d="M429.8,238.14a11.82,11.82,0,0,0,18.74.19C476.67,204.52,556,103.14,522.72,72.89c-51.85-47.13-83.61,53.69-83.61,53.69s-14.82-92.51-69-58.59C322.93,97.53,401.78,203.23,429.8,238.14Z"/><path class="cls-6" d="M388,69.07a23.52,23.52,0,0,1,3.13-8.5c-6.23.3-13.19,2.56-21,7.43-47.19,29.54,31.66,135.24,59.68,170.15a11.82,11.82,0,0,0,18.74.19c4.88-5.87,11.31-13.78,18.42-23a61.15,61.15,0,0,1-24.67-11.61C402.26,172.21,383.67,117.78,388,69.07Z"/><path class="cls-7" d="M440.23,68c.93,3,5.32,3,6.74.16,4.07-8,12.09-23,26.65-25.38,24.17-3.94,6.18-27.79-11.8-18.68,0,0,11.42-17.95-5.62-23.56-12-3.94-19.11,16.9-19.11,16.9s-8.43-14.2-16.3-7.38,0,17.35,0,17.35-14.05-3.46-17.43,8.37C400.33,46.34,429.78,34.28,440.23,68Z"/><path class="cls-4" d="M427,12.89a7.8,7.8,0,0,1-1.14-4.71,6.75,6.75,0,0,0-5,1.83c-7.87,6.82,0,17.35,0,17.35s-14.05-3.46-17.43,8.37c-3,10.61,26.42-1.45,36.88,32.22a3.18,3.18,0,0,0,2.83,2.22A103.53,103.53,0,0,0,427,12.89Z"/><path class="cls-4" d="M447.82,51.52c-3.79,0-3.8,5.89,0,5.89S451.62,51.52,447.82,51.52Z"/><path class="cls-4" d="M447.82,41.2c-3.79,0-3.8,5.9,0,5.9S451.62,41.2,447.82,41.2Z"/><path class="cls-4" d="M444.38,29.41c-3.79,0-3.8,5.89,0,5.89S448.18,29.41,444.38,29.41Z"/><path class="cls-4" d="M440,20.08c-3.79,0-3.8,5.9,0,5.9S443.76,20.08,440,20.08Z"/><path class="cls-5" d="M473.22,163.9s13.23-2.43,13.23-24.26c0-33-63.91-29.92-78.25-14.72s-12.91,47.71,22.47,42.45c0,0-1.43,7.91,3.35,9.69s7.79-7,7.79-7,.47,7.12,4.95,7,5.43-7,5.43-7,3.35,6.64,6.69,5.07,2.39-8.38,2.39-8.38Z"/><path class="cls-8" d="M423.8,159.63c8.42-1.22,12.42-30.31-1.59-32.51S399.58,163.13,423.8,159.63Z"/><path class="cls-8" d="M471.61,157.23c7.49-2.13,11.79-18,1.91-27.24s-19.12,1-16.89,13.09S462.36,159.85,471.61,157.23Z"/><path class="cls-8" d="M449,155.48s-1-6.37-4-5.74-3.39,9,0,10.1S449.79,158.36,449,155.48Z"/><path class="cls-6" d="M520,81.52c-4.82,0-4.83,7.5,0,7.5S524.85,81.52,520,81.52Z"/><path class="cls-6" d="M508.15,72.77c-4.82,0-4.83,7.5,0,7.5S513,72.77,508.15,72.77Z"/><path class="cls-6" d="M512.52,95.89c-4.82,0-4.83,7.5,0,7.5S517.35,95.89,512.52,95.89Z"/><path class="cls-3" d="M438.17,219.59c-4.82,0-4.83,7.5,0,7.5S443,219.59,438.17,219.59Z"/><path class="cls-3" d="M427.55,212.09c-4.82,0-4.83,7.5,0,7.5S432.39,212.09,427.55,212.09Z"/><path class="cls-3" d="M419.43,202.72c-4.82,0-4.83,7.5,0,7.5S424.26,202.72,419.43,202.72Z"/><path class="cls-3" d="M410.69,190.85c-4.82,0-4.83,7.5,0,7.5S415.52,190.85,410.69,190.85Z"/><path class="cls-3" d="M376.95,72.14c-4.82,0-4.83,7.5,0,7.5S381.78,72.14,376.95,72.14Z"/><path class="cls-3" d="M372.57,82.14c-4.82,0-4.83,7.5,0,7.5S377.41,82.14,372.57,82.14Z"/><path class="cls-5" d="M508.5,449.62q0,3.71-2.56,4.8t-5.24,2v6.27q-.26,6.78-.26,6.14a33.38,33.38,0,0,1-1.09,9.14q-1.21,4.8-1.59,5.82a55.86,55.86,0,0,1-2.94,5.12q-1.66,2.81-7.27,7.16a24.42,24.42,0,0,1-9.32,4.09,29.48,29.48,0,0,1-4,.77q-.51.13-11.1.13A26,26,0,0,1,453,499a16.72,16.72,0,0,1-4.34-2.43,14.17,14.17,0,0,1-3.7-4.86,34.23,34.23,0,0,1-3.19-9.08q-.26-1.28-1-10.87l-.13-6a12.25,12.25,0,0,1,0-2.56v-8.44a14.78,14.78,0,0,0-1.53-.26,6.65,6.65,0,0,0-.9-.32l-2-.57a7,7,0,0,1-3.77-2.56,6.39,6.39,0,0,1-1.85-4q0-2.3,5.5-3.58.64-.13,5.24-1.41V411q-1.26-.25-3.39-.64a4.75,4.75,0,0,1-3.39-5q0-5.63,6.39-6l9.59.13,7,.38h3.2a7.78,7.78,0,0,1,3.77,1.34,3.85,3.85,0,0,1,2.24,3.26,5.7,5.7,0,0,1-1,2.81q-2.56,4.35-9.21,4.35h-1.53q-.13.51-.13,6.14v23.66q8.7-.38,8.7,6.78,0,3.33-2.48,4.48a4.36,4.36,0,0,1-2,.58q-1.12.07-3.73.45a.71.71,0,0,0-.5.26v17.14a47.35,47.35,0,0,0,.9,6.52,14.47,14.47,0,0,0,3.34,6.78,22.87,22.87,0,0,0,3.6,2.81,9.88,9.88,0,0,0,4.62.89,17.58,17.58,0,0,0,11.17-4.22,22.5,22.5,0,0,0,6.93-10,19.42,19.42,0,0,0,.9-3.33,21.69,21.69,0,0,0,.51-4v-6.91l-.38-4.09a13.07,13.07,0,0,1-2.69.13l-2.17-.26a8.18,8.18,0,0,1-4.67-2.31,5.92,5.92,0,0,1-2.24-4.36,1.9,1.9,0,0,1,.13-1.28,10.18,10.18,0,0,1,5.63-4.23,20.71,20.71,0,0,1,4.86-.77q-.38.77-.38-2.82v-29Q479,408.59,479,406a6.32,6.32,0,0,1,1.6-4.36q1.6-1.79,5.56-2.18l8.31-.13q1.92,0,10.1,1.15,2.81.77,2.81,2.69,0,2.18-2.81,5a9.23,9.23,0,0,1-4.73,2.7,6.37,6.37,0,0,1-.77.13l-.38,7.83.38,22.71h2q.66.13,1.84.26Q508.49,443.1,508.5,449.62Z"/><path class="cls-5" d="M684.81,450.2q0,7.29-8.44,7.42-.9,18.42-7.16,31.46a19.62,19.62,0,0,1-7.29,7.8q-7.93,5.37-15,5.37A27,27,0,0,1,627.77,495a26.39,26.39,0,0,1-7-10.87q-.64-1.66-1.66-5-2.56-9.08-2.56-13.56l.38-4.48q0-.38-3-.83a7.33,7.33,0,0,1-5.05-3.52,8.9,8.9,0,0,1-1.92-5.12,5.31,5.31,0,0,1,1.41-2.81,13.87,13.87,0,0,1,1.79-2,12.48,12.48,0,0,1,4.73-1.15,29.68,29.68,0,0,0,.64-6.91q.13-3.58.13-7,1.28-22,16-29.8a33.48,33.48,0,0,1,15.86-3.71,38,38,0,0,1,9.46,1.41q6,1.54,8.57,3.84,6,5.25,9.34,18.67.89,4.1,2.3,21.36Q684.81,446.1,684.81,450.2ZM662.18,458v-2.3h-.38a8.53,8.53,0,0,1-2.94.51q-5.76,0-5.76-7.55,0-2.69,3.71-4.6,3.07-1.66,4.61-1.41c.08-.51.17-1.06.26-1.66v-6.65a39.14,39.14,0,0,0-2-12.92q-2.69-7.93-8.19-9.59a15.09,15.09,0,0,0-5-.89q-10.36,0-12.53,9.46-1.15,4.73-2.94,15.6l-.13,10a32.69,32.69,0,0,1,4.09.9,11.17,11.17,0,0,1,3.84,3.33,4.65,4.65,0,0,1,1,1.53,7.59,7.59,0,0,1-7.55,7.67v2.94a44.71,44.71,0,0,0,2.57,15q3.86,11,11.69,11,6.17,0,10.53-6.78a27.55,27.55,0,0,0,4.24-12.92q.13-1.15.51-5.24A46.31,46.31,0,0,0,662.18,458Z"/><path class="cls-5" d="M768.78,481.21q0,4.73-3.52,10.3t-11.06,8.38a35.85,35.85,0,0,1-13.3,2.43,40.85,40.85,0,0,1-13.43-2.56,36.68,36.68,0,0,1-9.72-4.86,7.5,7.5,0,0,1-7.55,5.12q-7.8,0-7.8-8.57,0-16.63.51-18.16a4.07,4.07,0,0,1,4.22-2.69q5.11,0,7,1.93,1.54,2.32,4.35,6.18a28.12,28.12,0,0,0,6.27,5.54A25.7,25.7,0,0,0,739.11,489a12.6,12.6,0,0,0,8.12-2.5,8.46,8.46,0,0,0,3.13-7q0-5.27-5.63-11.43a30.13,30.13,0,0,0-9.72-7.58,9.5,9.5,0,0,1-4.16,5.05,11.73,11.73,0,0,1-6.33,2q-4.48,0-4.48-7a11.94,11.94,0,0,1,.13-1.92,13.57,13.57,0,0,1,1.15-3.07c.43-.77.64-1.11.64-1a46.92,46.92,0,0,0-5-4.35q-10-7.42-13.81-15.6t-3.84-13.81a21,21,0,0,1,3.07-10.3,27,27,0,0,1,8.57-9.14q3.84-2.56,11.51-2.56a43.67,43.67,0,0,1,12.79,2.08,35.62,35.62,0,0,1,12.15,5.85l1.66-6.23q1.28-2.34,5.5-2.34,7.8,0,7.8,7.8l.26,16.24q-.64,4.86-1.79,6.39-1.53,2-5.76,2-3.71,0-7.8-4.7-6.52-7.87-7.93-9a19.78,19.78,0,0,0-13.3-4.83q-10,0-10,8.41,0,4.84,4.48,9.93,5.24,5.61,10.62,11.21,2.56-5.88,11.77-5.88,6.91,0,6.91,6.78a10.48,10.48,0,0,1-.51,3.32,13.56,13.56,0,0,1-2,4q1.41,1.41,7.67,7,11.13,10,12.53,17.78Q768.78,480.7,768.78,481.21Z"/><path class="cls-5" d="M237.54,401.74a8.85,8.85,0,0,0-4.45-2.25,25.57,25.57,0,0,0-4-.39l-9.92.77H197.3l-18.1.77h-2.33q-3.62,0-3.62,3.58,0,9.08,9.21,9l.13,7.19q0,2.44-.77,12.85-.51,6-.77,9.12-6.4.9-8.7,5a9.34,9.34,0,0,0-.77,1.67,4.49,4.49,0,0,0,.26,1.67q.65,1.54.91,2.18,1.55,3.34,7.39,4.11l1.42.39v10.28q-.51,12.2-1,19.27a21.27,21.27,0,0,0-5.5,1.67,10.17,10.17,0,0,0-4.35,5.27,7.05,7.05,0,0,0-.51,1.93,5.09,5.09,0,0,0,1.41,2.31,7.68,7.68,0,0,0,4.09,2.7,10.79,10.79,0,0,0,3.2.51c5.13,0,10.24-.53,15.36-.7,3.88-.13,7.79,0,11.68,0a7.08,7.08,0,0,0,4.54-1.89q.89-.74.9-5a6.47,6.47,0,0,0-3.45-5.87q-2-1.17-8.06-1.17l-2.55-.4v-.71l-.51-7.42.51-9.72V457.94l2.92.26q3.18.13,4.38.26v1.66a20.16,20.16,0,0,0,.77,3.84,7.39,7.39,0,0,0,2.49,3.9q2,1.73,2.88,1.73a5.45,5.45,0,0,0,3.2-1.09,9.86,9.86,0,0,0,1.92-1.6,11.52,11.52,0,0,0,2.69-6.52q.25-3.33.64-6.78.25-1.41.38-2.69.25-2.69.26-3.84a28.81,28.81,0,0,0-.26-3.64,27.38,27.38,0,0,0-.9-4.16q-1.53-4.48-3.58-4.48-2.69,0-5,3.2a12.79,12.79,0,0,0-2.56,6.52q-.13.38-.26.38l-10-.38.77-12.28v-6a80.18,80.18,0,0,1,1-11,52.38,52.38,0,0,1,10.15-.9h8.61a37.34,37.34,0,0,1,5.66.26,29.9,29.9,0,0,0-.13,3.91q0,6.77,4,9.89a3,3,0,0,0,2.17.65,7.39,7.39,0,0,0,5.88-2.7,12.6,12.6,0,0,0,2.3-5.91q1.28-8.22,1.66-12.33a7.83,7.83,0,0,0,.26-2.31A5.39,5.39,0,0,0,237.54,401.74Z"/><path class="cls-5" d="M342.36,496.49q0,2.43-3.52,3.84a12.89,12.89,0,0,1-5.95,1.15l-5.76.13H314a16.61,16.61,0,0,1-4.61-.9A3.72,3.72,0,0,1,307,497a5.17,5.17,0,0,1,3.33-5,56.28,56.28,0,0,1,5.63-1.53v-.26q0-.51-2-14.07-2.18-14.08-2.69-15.87-2.56,1.66-8.06,5-7,4.1-9.21,4.09t-8.19-4.48q-4.35-3.2-8.57-6.53-2.3,8.7-7.55,32.11,9.85.64,9.85,5.88,0,4.74-9.6,4.74l-19.32-.26q-6.78-.25-6.78-4.09t4.48-5.12q3.2-.51,6.4-1.15,3.84-12.79,9.21-37.62-3.2-2.18-11.52-3.45-4.22-.77-4.22-4a7.2,7.2,0,0,1,2.81-5.69,8.91,8.91,0,0,1,5.76-2.37,45.88,45.88,0,0,1,11.77,2.17q.38-1.27,6.78-27.29-6.4-.77-6.4-7.65,0-5.74,9.6-5.74l12.67.26,18.81-.26q2.17-.38,6.14,1,5.25,1.92,5.25,5.26,0,5.52-7.42,7.06.26.51,3.84,15.91,1.15,5,3.2,12.71a22.24,22.24,0,0,1,6-1.66,8,8,0,0,1,5.12,1.85,6,6,0,0,1,2.3,4.93q0,2.56-3.84,5.5l-5.89,4.35q3.2,14.33,7.17,34.16l2.56-.26a8.86,8.86,0,0,1,5.25,1.54A6.1,6.1,0,0,1,342.36,496.49ZM308.2,446.08,301,413.19a25.85,25.85,0,0,0-5.9-.76,19.59,19.59,0,0,0-5.64.77q-1.8,5.65-5.39,19.62-.26,1.16-1.15,5l-1.54,6.67,13.27,10Q302.94,449.53,308.2,446.08Z"/><path class="cls-5" d="M420.85,459.27a28.07,28.07,0,0,0-7.92-8.43c-1.18-.87-2.47-1.72-3.85-2.54,3.48-4.2,9.21-13.11,9.21-19.47a33.88,33.88,0,0,0-5-18.55,19.18,19.18,0,0,0-5.79-5.5c-3-1.79-4.18-3.31-12.15-4.33q-2.64-.38-8.05-.77l-14.22-.26q-9.06,0-14.34,3.2-1.76,1-1.76,4.09a8.15,8.15,0,0,0,1.73,5.24,5.83,5.83,0,0,0,4.83,2.17h1.24a22.57,22.57,0,0,1,.25,4.7v3.81q-.63,9-.63,14.35v6.86l-.59.16h.11a21.56,21.56,0,0,1-2.85.6,12.4,12.4,0,0,0-5.12,1.65,11.28,11.28,0,0,0-1.51,1,7,7,0,0,0-1.36,4.33q0,2.41,3.45,4.32a12.4,12.4,0,0,0,5.12,1.65,24.4,24.4,0,0,1,3.45.76v6.86q0,5.34.64,14.35v3.81a22.22,22.22,0,0,1-.25,4.7h-1.26a6,6,0,0,0-4.91,2.17,8.06,8.06,0,0,0-1.76,5.24q0,3.07,1.79,4.09,5.37,3.19,14.58,3.2l14.45-.26q5.5-.38,8.19-.77,12.15-1.54,16.75-4.22a19.36,19.36,0,0,0,5.88-5.5,33.47,33.47,0,0,0,5.12-18.55Q424.3,464.89,420.85,459.27ZM379.22,444v-4.94l-.13-10.1-.13-1.92q-.25-7.8-.13-9.34v-1.53a37.39,37.39,0,0,1,5.94-.51,62.14,62.14,0,0,1,11.62.9c4.3.68,2.87,1.39,4.38,1.9q.5.13,1.52,1.92a13.43,13.43,0,0,1,2,7.55,14.36,14.36,0,0,1-2.54,8.63c-2.24,2.94-6,5.2-9.24,6.91a12.22,12.22,0,0,1-2,.54h.35q-4.6.85-11.33,1.84V444ZM408,481.9q-1,1.79-1.54,1.92a66,66,0,0,1-8.86,1.79,64.19,64.19,0,0,1-11.82.9,38.63,38.63,0,0,1-6-.51v-1.53q-.13-1.54.13-9.34l.13-1.92.13-10.1v-6.78q6.13.9,10.48,1.68a62.91,62.91,0,0,1,9.3,2.15q10.15,4.09,10.15,14.2A13.27,13.27,0,0,1,408,481.9Z"/><path class="cls-5" d="M594.83,488.9v4.51a15.92,15.92,0,0,1-.9,4.51q-1.81,2.32-6.7,2.45l-19.45.39q-5,.13-14.68.52l-8.76.26h-6.05q-16.36,0-16.36-7,0-3.48,7.86-6.44,0-.64.13-15.2l.39-9.4v-6.44q-9.79-1.42-9.79-7,0-7.6,9.79-8.63V411.62H529a10,10,0,0,1-4.76-1.42q-3-1.8-3-4.25a6.92,6.92,0,0,1,.9-2.83q2.19-4.25,11.08-4.25h17.26q7.73,0,7.73,7.73,0,6.57-10.69,6.57h-1.8l.39,12.86v14.4l6,1.28q4.69,1.29,4.69,4.63a9.6,9.6,0,0,1-1.35,4.44,10.28,10.28,0,0,1-3.28,3.79,14.08,14.08,0,0,1-6.44,1.67v22.5q.13,3.22.51,9a70.38,70.38,0,0,0,11.63,1h10.23q1.66,0,7.41-.51A26.39,26.39,0,0,0,579,487.1V476.41q.53-6.05,1.06-12.11,1.19-5.79,7.79-5.8,5,0,5.94,3.87a60.72,60.72,0,0,1,.79,9.4q.13,5,.26,9.92Z"/></g></g></svg>